<svg xmlns="http://www.w3.org/2000/svg" xmlns:xlink="http://www.w3.org/1999/xlink" width="80" zoomAndPan="magnify" viewBox="0 0 60 30.000001" height="40" preserveAspectRatio="xMidYMid meet" version="1.0"><defs><g><g id="id1"/></g><clipPath id="id2"><path d="M 26.78125 14.515625 L 34.039062 14.515625 L 34.039062 21.773438 L 26.78125 21.773438 Z M 26.78125 14.515625 " clip-rule="nonzero"/></clipPath></defs><g fill="rgb(85.879517%, 58.039856%, 40.779114%)" fill-opacity="1"><g transform="translate(14.410865, 13.833975)"><g><path d="M 4.203125 -5.75 C 4.253906 -5.84375 4.332031 -5.90625 4.4375 -5.9375 C 4.539062 -5.976562 4.671875 -6 4.828125 -6 C 4.984375 -6 5.109375 -5.984375 5.203125 -5.953125 C 5.296875 -5.921875 5.363281 -5.882812 5.40625 -5.84375 C 5.457031 -5.8125 5.492188 -5.757812 5.515625 -5.6875 C 5.546875 -5.59375 5.5625 -5.453125 5.5625 -5.265625 L 5.5625 -0.71875 C 5.5625 -0.59375 5.554688 -0.5 5.546875 -0.4375 C 5.546875 -0.375 5.523438 -0.300781 5.484375 -0.21875 C 5.398438 -0.0703125 5.1875 0 4.84375 0 C 4.625 0 4.472656 -0.015625 4.390625 -0.046875 C 4.316406 -0.078125 4.25 -0.128906 4.1875 -0.203125 C 2.957031 -1.835938 2.148438 -2.910156 1.765625 -3.421875 L 1.765625 -0.71875 C 1.765625 -0.59375 1.757812 -0.5 1.75 -0.4375 C 1.75 -0.375 1.722656 -0.300781 1.671875 -0.21875 C 1.597656 -0.0703125 1.390625 0 1.046875 0 C 0.703125 0 0.492188 -0.0703125 0.421875 -0.21875 C 0.378906 -0.300781 0.351562 -0.375 0.34375 -0.4375 C 0.332031 -0.507812 0.328125 -0.609375 0.328125 -0.734375 L 0.328125 -5.296875 C 0.328125 -5.503906 0.351562 -5.65625 0.40625 -5.75 C 0.457031 -5.84375 0.535156 -5.90625 0.640625 -5.9375 C 0.742188 -5.976562 0.875 -6 1.03125 -6 C 1.195312 -6 1.328125 -5.984375 1.421875 -5.953125 C 1.523438 -5.921875 1.59375 -5.882812 1.625 -5.84375 C 1.644531 -5.832031 1.707031 -5.765625 1.8125 -5.640625 C 2.96875 -4.066406 3.738281 -3.03125 4.125 -2.53125 L 4.125 -5.296875 C 4.125 -5.503906 4.148438 -5.65625 4.203125 -5.75 Z M 4.203125 -5.75 "/></g></g></g><g fill="rgb(85.879517%, 58.039856%, 40.779114%)" fill-opacity="1"><g transform="translate(20.427515, 13.833975)"><g><path d="M 4.25 -5.78125 C 4.300781 -5.863281 4.378906 -5.921875 4.484375 -5.953125 C 4.585938 -5.992188 4.71875 -6.015625 4.875 -6.015625 C 5.03125 -6.015625 5.15625 -6 5.25 -5.96875 C 5.34375 -5.9375 5.410156 -5.898438 5.453125 -5.859375 C 5.503906 -5.828125 5.539062 -5.773438 5.5625 -5.703125 C 5.59375 -5.609375 5.609375 -5.460938 5.609375 -5.265625 L 5.609375 -2.796875 C 5.609375 -2.078125 5.382812 -1.421875 4.9375 -0.828125 C 4.726562 -0.554688 4.453125 -0.332031 4.109375 -0.15625 C 3.765625 0.0078125 3.378906 0.09375 2.953125 0.09375 C 2.535156 0.09375 2.15625 0.0078125 1.8125 -0.15625 C 1.476562 -0.332031 1.203125 -0.5625 0.984375 -0.84375 C 0.546875 -1.425781 0.328125 -2.082031 0.328125 -2.8125 L 0.328125 -5.28125 C 0.328125 -5.414062 0.332031 -5.515625 0.34375 -5.578125 C 0.351562 -5.640625 0.378906 -5.707031 0.421875 -5.78125 C 0.460938 -5.863281 0.535156 -5.921875 0.640625 -5.953125 C 0.742188 -5.992188 0.878906 -6.015625 1.046875 -6.015625 C 1.222656 -6.015625 1.363281 -5.992188 1.46875 -5.953125 C 1.570312 -5.921875 1.644531 -5.863281 1.6875 -5.78125 C 1.75 -5.65625 1.78125 -5.484375 1.78125 -5.265625 L 1.78125 -2.8125 C 1.78125 -2.476562 1.863281 -2.160156 2.03125 -1.859375 C 2.113281 -1.710938 2.234375 -1.59375 2.390625 -1.5 C 2.554688 -1.40625 2.753906 -1.359375 2.984375 -1.359375 C 3.378906 -1.359375 3.675781 -1.503906 3.875 -1.796875 C 4.070312 -2.097656 4.171875 -2.441406 4.171875 -2.828125 L 4.171875 -5.328125 C 4.171875 -5.546875 4.195312 -5.695312 4.25 -5.78125 Z M 4.25 -5.78125 "/></g></g></g><g fill="rgb(85.879517%, 58.039856%, 40.779114%)" fill-opacity="1"><g transform="translate(26.493285, 13.833975)"><g><path d="M 0.71875 -6.015625 L 5.265625 -6.015625 C 5.441406 -6.015625 5.570312 -5.992188 5.65625 -5.953125 C 5.738281 -5.910156 5.789062 -5.84375 5.8125 -5.75 C 5.84375 -5.664062 5.859375 -5.550781 5.859375 -5.40625 C 5.859375 -5.269531 5.84375 -5.15625 5.8125 -5.0625 C 5.789062 -4.976562 5.75 -4.921875 5.6875 -4.890625 C 5.582031 -4.847656 5.441406 -4.828125 5.265625 -4.828125 L 3.703125 -4.828125 L 3.703125 -0.703125 C 3.703125 -0.578125 3.695312 -0.484375 3.6875 -0.421875 C 3.675781 -0.359375 3.648438 -0.285156 3.609375 -0.203125 C 3.566406 -0.128906 3.492188 -0.078125 3.390625 -0.046875 C 3.296875 -0.015625 3.160156 0 2.984375 0 C 2.816406 0 2.679688 -0.015625 2.578125 -0.046875 C 2.484375 -0.078125 2.414062 -0.128906 2.375 -0.203125 C 2.332031 -0.285156 2.304688 -0.359375 2.296875 -0.421875 C 2.285156 -0.492188 2.28125 -0.59375 2.28125 -0.71875 L 2.28125 -4.828125 L 0.71875 -4.828125 C 0.539062 -4.828125 0.410156 -4.84375 0.328125 -4.875 C 0.242188 -4.914062 0.1875 -4.976562 0.15625 -5.0625 C 0.132812 -5.15625 0.125 -5.273438 0.125 -5.421875 C 0.125 -5.566406 0.132812 -5.679688 0.15625 -5.765625 C 0.1875 -5.847656 0.234375 -5.90625 0.296875 -5.9375 C 0.398438 -5.988281 0.539062 -6.015625 0.71875 -6.015625 Z M 0.71875 -6.015625 "/></g></g></g><g fill="rgb(85.879517%, 58.039856%, 40.779114%)" fill-opacity="1"><g transform="translate(32.599983, 13.833975)"><g><path d="M 4.921875 -1.015625 C 5.003906 -0.816406 5.046875 -0.675781 5.046875 -0.59375 C 5.046875 -0.382812 4.875 -0.207031 4.53125 -0.0625 C 4.363281 0.0078125 4.222656 0.046875 4.109375 0.046875 C 4.003906 0.046875 3.914062 0.0195312 3.84375 -0.03125 C 3.78125 -0.0820312 3.734375 -0.132812 3.703125 -0.1875 C 3.648438 -0.289062 3.4375 -0.785156 3.0625 -1.671875 L 2.8125 -1.65625 L 1.78125 -1.65625 L 1.78125 -0.734375 C 1.78125 -0.609375 1.773438 -0.515625 1.765625 -0.453125 C 1.753906 -0.390625 1.726562 -0.316406 1.6875 -0.234375 C 1.613281 -0.0859375 1.398438 -0.015625 1.046875 -0.015625 C 0.660156 -0.015625 0.4375 -0.113281 0.375 -0.3125 C 0.34375 -0.40625 0.328125 -0.546875 0.328125 -0.734375 L 0.328125 -5.28125 C 0.328125 -5.40625 0.332031 -5.5 0.34375 -5.5625 C 0.351562 -5.625 0.378906 -5.695312 0.421875 -5.78125 C 0.492188 -5.925781 0.707031 -6 1.0625 -6 L 2.828125 -6 C 3.304688 -6 3.769531 -5.828125 4.21875 -5.484375 C 4.4375 -5.304688 4.617188 -5.070312 4.765625 -4.78125 C 4.910156 -4.5 4.984375 -4.179688 4.984375 -3.828125 C 4.984375 -3.203125 4.773438 -2.691406 4.359375 -2.296875 C 4.484375 -2.003906 4.671875 -1.578125 4.921875 -1.015625 Z M 1.78125 -3.109375 L 2.828125 -3.109375 C 2.984375 -3.109375 3.140625 -3.164062 3.296875 -3.28125 C 3.453125 -3.40625 3.53125 -3.585938 3.53125 -3.828125 C 3.53125 -4.066406 3.453125 -4.242188 3.296875 -4.359375 C 3.140625 -4.484375 2.976562 -4.546875 2.8125 -4.546875 L 1.78125 -4.546875 Z M 1.78125 -3.109375 "/></g></g></g><g fill="rgb(85.879517%, 58.039856%, 40.779114%)" fill-opacity="1"><g transform="translate(37.888086, 13.833975)"><g><path d="M 0.328125 -5.28125 C 0.328125 -5.40625 0.332031 -5.5 0.34375 -5.5625 C 0.351562 -5.625 0.378906 -5.695312 0.421875 -5.78125 C 0.492188 -5.925781 0.707031 -6 1.0625 -6 C 1.4375 -6 1.660156 -5.898438 1.734375 -5.703125 C 1.765625 -5.609375 1.78125 -5.460938 1.78125 -5.265625 L 1.78125 -0.71875 C 1.78125 -0.59375 1.773438 -0.5 1.765625 -0.4375 C 1.753906 -0.375 1.726562 -0.300781 1.6875 -0.21875 C 1.613281 -0.0703125 1.398438 0 1.046875 0 C 0.660156 0 0.4375 -0.101562 0.375 -0.3125 C 0.34375 -0.394531 0.328125 -0.535156 0.328125 -0.734375 Z M 0.328125 -5.28125 "/></g></g></g><g fill="rgb(85.879517%, 58.039856%, 40.779114%)" fill-opacity="1"><g transform="translate(40.108931, 13.833975)"><g/></g></g><g fill="rgb(85.879517%, 58.039856%, 40.779114%)" fill-opacity="1"><g transform="translate(14.410865, 20.655528)"><g><path d="M 4.296875 -6 C 4.421875 -6 4.515625 -5.992188 4.578125 -5.984375 C 4.640625 -5.984375 4.707031 -5.957031 4.78125 -5.90625 C 4.863281 -5.863281 4.921875 -5.789062 4.953125 -5.6875 C 4.992188 -5.582031 5.015625 -5.441406 5.015625 -5.265625 C 5.015625 -5.097656 4.992188 -4.960938 4.953125 -4.859375 C 4.921875 -4.753906 4.863281 -4.679688 4.78125 -4.640625 C 4.707031 -4.597656 4.640625 -4.570312 4.578125 -4.5625 C 4.515625 -4.550781 4.414062 -4.546875 4.28125 -4.546875 L 1.78125 -4.546875 L 1.78125 -3.71875 L 3.390625 -3.71875 C 3.523438 -3.71875 3.625 -3.710938 3.6875 -3.703125 C 3.75 -3.703125 3.816406 -3.679688 3.890625 -3.640625 C 4.035156 -3.554688 4.109375 -3.335938 4.109375 -2.984375 C 4.109375 -2.609375 4.003906 -2.382812 3.796875 -2.3125 C 3.710938 -2.28125 3.570312 -2.265625 3.375 -2.265625 L 1.78125 -2.265625 L 1.78125 -0.71875 C 1.78125 -0.59375 1.773438 -0.5 1.765625 -0.4375 C 1.753906 -0.375 1.726562 -0.300781 1.6875 -0.21875 C 1.613281 -0.0703125 1.398438 0 1.046875 0 C 0.660156 0 0.4375 -0.101562 0.375 -0.3125 C 0.34375 -0.394531 0.328125 -0.535156 0.328125 -0.734375 L 0.328125 -5.28125 C 0.328125 -5.5625 0.378906 -5.75 0.484375 -5.84375 C 0.585938 -5.945312 0.785156 -6 1.078125 -6 Z M 4.296875 -6 "/></g></g></g><g fill="rgb(85.879517%, 58.039856%, 40.779114%)" fill-opacity="1"><g transform="translate(19.748087, 20.655528)"><g><path d="M 3.140625 -6.078125 C 3.953125 -6.078125 4.65625 -5.785156 5.25 -5.203125 C 5.84375 -4.617188 6.140625 -3.894531 6.140625 -3.03125 C 6.140625 -2.164062 5.851562 -1.425781 5.28125 -0.8125 C 4.71875 -0.207031 4.019531 0.09375 3.1875 0.09375 C 2.363281 0.09375 1.660156 -0.203125 1.078125 -0.796875 C 0.492188 -1.398438 0.203125 -2.117188 0.203125 -2.953125 C 0.203125 -3.398438 0.285156 -3.820312 0.453125 -4.21875 C 0.617188 -4.613281 0.835938 -4.941406 1.109375 -5.203125 C 1.378906 -5.472656 1.691406 -5.6875 2.046875 -5.84375 C 2.398438 -6 2.765625 -6.078125 3.140625 -6.078125 Z M 1.65625 -2.984375 C 1.65625 -2.503906 1.8125 -2.109375 2.125 -1.796875 C 2.4375 -1.492188 2.785156 -1.34375 3.171875 -1.34375 C 3.566406 -1.34375 3.914062 -1.488281 4.21875 -1.78125 C 4.53125 -2.082031 4.6875 -2.476562 4.6875 -2.96875 C 4.6875 -3.46875 4.53125 -3.867188 4.21875 -4.171875 C 3.90625 -4.472656 3.554688 -4.625 3.171875 -4.625 C 2.785156 -4.625 2.4375 -4.472656 2.125 -4.171875 C 1.8125 -3.867188 1.65625 -3.472656 1.65625 -2.984375 Z M 1.65625 -2.984375 "/></g></g></g><g fill="rgb(85.879517%, 58.039856%, 40.779114%)" fill-opacity="1"><g transform="translate(26.210018, 20.655528)"><g/></g></g><g fill="rgb(85.879517%, 58.039856%, 40.779114%)" fill-opacity="1"><g transform="translate(28.403848, 20.655528)"><g/></g></g><g fill="rgb(85.879517%, 58.039856%, 40.779114%)" fill-opacity="1"><g transform="translate(30.597677, 20.655528)"><g/></g></g><g fill="rgb(85.879517%, 58.039856%, 40.779114%)" fill-opacity="1"><g transform="translate(32.791505, 20.655528)"><g/></g></g><g fill="rgb(85.879517%, 58.039856%, 40.779114%)" fill-opacity="1"><g transform="translate(34.982108, 20.655528)"><g><path d="M 1.0625 -6.015625 L 2.578125 -6 C 3.367188 -6 4.0625 -5.710938 4.65625 -5.140625 C 5.257812 -4.578125 5.5625 -3.878906 5.5625 -3.046875 C 5.5625 -2.210938 5.265625 -1.5 4.671875 -0.90625 C 4.085938 -0.3125 3.378906 -0.015625 2.546875 -0.015625 L 1.046875 -0.015625 C 0.710938 -0.015625 0.503906 -0.0820312 0.421875 -0.21875 C 0.359375 -0.332031 0.328125 -0.503906 0.328125 -0.734375 L 0.328125 -5.296875 C 0.328125 -5.421875 0.332031 -5.515625 0.34375 -5.578125 C 0.351562 -5.640625 0.378906 -5.707031 0.421875 -5.78125 C 0.492188 -5.9375 0.707031 -6.015625 1.0625 -6.015625 Z M 2.578125 -1.453125 C 2.960938 -1.453125 3.3125 -1.597656 3.625 -1.890625 C 3.945312 -2.179688 4.109375 -2.546875 4.109375 -2.984375 C 4.109375 -3.429688 3.953125 -3.800781 3.640625 -4.09375 C 3.335938 -4.394531 2.976562 -4.546875 2.5625 -4.546875 L 1.78125 -4.546875 L 1.78125 -1.453125 Z M 2.578125 -1.453125 "/></g></g></g><g fill="rgb(85.879517%, 58.039856%, 40.779114%)" fill-opacity="1"><g transform="translate(40.865697, 20.655528)"><g/></g></g><g clip-path="url(#id2)"><path fill="rgb(92.939758%, 63.919067%, 19.60907%)" d="M 30.414062 14.515625 C 28.417969 14.515625 26.800781 16.144531 26.800781 18.152344 C 26.800781 20.066406 28.277344 21.636719 30.144531 21.773438 C 30.140625 21.21875 30.136719 20.613281 30.136719 20.550781 C 30.136719 20.523438 30.132812 20.496094 30.132812 20.472656 C 30.132812 20.460938 30.132812 20.453125 30.132812 20.445312 C 30.128906 20.386719 30.121094 20.328125 30.121094 20.277344 C 29.957031 20.21875 29.808594 20.113281 29.679688 19.96875 L 29.679688 19.964844 C 29.65625 19.9375 29.632812 19.910156 29.613281 19.882812 C 29.609375 19.878906 29.605469 19.871094 29.597656 19.867188 C 29.578125 19.839844 29.5625 19.8125 29.542969 19.78125 C 29.535156 19.773438 29.53125 19.765625 29.527344 19.757812 C 29.507812 19.730469 29.492188 19.699219 29.476562 19.671875 C 29.46875 19.660156 29.464844 19.652344 29.460938 19.640625 C 29.425781 19.578125 29.394531 19.507812 29.367188 19.4375 L 29.363281 19.429688 C 29.355469 19.40625 29.347656 19.382812 29.339844 19.363281 C 29.332031 19.335938 29.320312 19.3125 29.3125 19.289062 C 29.308594 19.265625 29.300781 19.242188 29.296875 19.21875 C 29.289062 19.191406 29.28125 19.164062 29.273438 19.136719 C 29.269531 19.113281 29.265625 19.09375 29.257812 19.070312 C 29.253906 19.039062 29.246094 19.007812 29.242188 18.976562 C 29.238281 18.957031 29.234375 18.933594 29.230469 18.914062 C 29.226562 18.878906 29.222656 18.84375 29.21875 18.804688 C 29.21875 18.789062 29.214844 18.769531 29.214844 18.753906 C 29.210938 18.695312 29.207031 18.640625 29.207031 18.585938 L 29.210938 18.585938 C 29.207031 18.570312 29.207031 18.558594 29.207031 18.546875 C 29.28125 17.652344 29.355469 16.761719 29.429688 15.871094 C 29.445312 15.699219 29.492188 15.5625 29.535156 15.5625 C 29.578125 15.5625 29.617188 15.703125 29.625 15.875 C 29.628906 15.941406 29.628906 16.003906 29.632812 16.070312 C 29.664062 16.898438 29.695312 17.726562 29.730469 18.558594 C 29.730469 18.566406 29.726562 18.574219 29.726562 18.585938 L 29.839844 18.585938 C 29.839844 18.574219 29.835938 18.5625 29.839844 18.550781 C 29.898438 17.65625 29.960938 16.761719 30.023438 15.871094 C 30.035156 15.699219 30.082031 15.5625 30.125 15.5625 C 30.167969 15.5625 30.210938 15.703125 30.21875 15.875 C 30.265625 16.765625 30.3125 17.660156 30.359375 18.554688 C 30.359375 18.566406 30.355469 18.574219 30.355469 18.585938 L 30.46875 18.585938 C 30.46875 18.574219 30.464844 18.5625 30.46875 18.550781 C 30.527344 17.65625 30.582031 16.765625 30.640625 15.871094 C 30.652344 15.699219 30.695312 15.5625 30.738281 15.5625 C 30.785156 15.5625 30.828125 15.699219 30.835938 15.871094 C 30.886719 16.765625 30.9375 17.660156 30.988281 18.554688 C 30.988281 18.5625 30.988281 18.574219 30.988281 18.585938 L 31.097656 18.585938 C 31.097656 18.574219 31.097656 18.566406 31.097656 18.558594 C 31.132812 17.664062 31.164062 16.769531 31.199219 15.875 C 31.207031 15.703125 31.246094 15.5625 31.289062 15.5625 C 31.332031 15.5625 31.378906 15.699219 31.394531 15.871094 C 31.46875 16.761719 31.542969 17.652344 31.617188 18.546875 C 31.617188 18.558594 31.617188 18.570312 31.617188 18.585938 C 31.609375 19.402344 31.222656 20.085938 30.707031 20.277344 C 30.699219 20.355469 30.691406 20.445312 30.691406 20.550781 C 30.6875 20.613281 30.683594 21.21875 30.679688 21.773438 C 32.550781 21.636719 34.023438 20.066406 34.023438 18.152344 C 34.023438 16.144531 32.40625 14.515625 30.414062 14.515625 " fill-opacity="1" fill-rule="nonzero"/></g></svg>